<svg width="64" height="64" viewBox="0 0 64 64" fill="none" xmlns="http://www.w3.org/2000/svg">
  <circle cx="32" cy="32" r="30" fill="white"/>
  <path d="M21 18c-1.5 4.5-3.2 9-8 12.5 2.5 1 5.6 0.6 8.4-1.2 2.2-1.6 4.7-2.9 7.3-3.7 1-3.5-1.2-7.6-7.7-7.6z" fill="#0F172A"/>
  <path d="M43 18c1.5 4.5 3.2 9 8 12.5-2.5 1-5.6 0.6-8.4-1.2-2.2-1.6-4.7-2.9-7.3-3.7-1-3.5 1.2-7.6 7.7-7.6z" fill="#0F172A"/>
  <path d="M32 19c-9.5 0-17 7.1-17 15.6 0 9 7.4 18.4 17 18.4s17-9.4 17-18.4C49 26.1 41.5 19 32 19z" fill="#0F172A"/>
  <path d="M19.5 33.5c0 5.5 6.7 8.3 12.5 8.3 5.8 0 12.5-2.8 12.5-8.3 0-5-5.7-9.5-12.5-9.5-6.8 0-12.5 4.5-12.5 9.5z" fill="white"/>
  <ellipse cx="23.5" cy="31" rx="4.3" ry="3.8" fill="#E5E7EB"/>
  <ellipse cx="40.5" cy="31" rx="4.3" ry="3.8" fill="#E5E7EB"/>
  <circle cx="23.5" cy="31" r="1.7" fill="#0F172A"/>
  <circle cx="40.5" cy="31" r="1.7" fill="#0F172A"/>
  <ellipse cx="32" cy="38" rx="5.8" ry="3.6" fill="white"/>
  <path d="M32 34c-1.4 0-2.5 0.7-2.5 1.6 0 .9 1.1 1.7 2.5 1.7s2.5-.8 2.5-1.7C34.5 34.7 33.4 34 32 34z" fill="#0F172A"/>
  <path d="M27 40c1.5 2.6 3.7 4 5 4s3.5-1.4 5-4" stroke="#0F172A" stroke-width="2" stroke-linecap="round"/>
</svg>
