<svg width="64" height="64" viewBox="0 0 64 64" fill="none" xmlns="http://www.w3.org/2000/svg">
  <circle cx="32" cy="32" r="30" fill="#5B6EF5"/>
  <path d="M13 22 L17 5 L26 16Z" fill="#374151"/>
  <path d="M51 22 L47 5 L38 16Z" fill="#374151"/>
  <path d="M16 19 L18 9 L23 16Z" fill="#FCE7F3"/>
  <path d="M48 19 L46 9 L41 16Z" fill="#FCE7F3"/>
  <ellipse cx="32" cy="33" rx="17" ry="14" fill="white"/>
  <path d="M17 32 Q24 21 32 25 Q40 21 47 32 Q48 38 42 39 Q36 37 32 34 Q28 37 22 39 Q16 38 17 32Z" fill="#1F2937"/>
  <ellipse cx="22" cy="30" rx="3.5" ry="4.5" fill="white"/>
  <ellipse cx="42" cy="30" rx="3.5" ry="4.5" fill="white"/>
  <circle cx="22" cy="30" r="2" fill="#1F2937"/>
  <circle cx="42" cy="30" r="2" fill="#1F2937"/>
  <circle cx="21" cy="28.5" r="0.8" fill="white"/>
  <circle cx="41" cy="28.5" r="0.8" fill="white"/>
  <path d="M26 38 Q32 35 38 38 Q36 45 32 45 Q28 45 26 38Z" fill="#F3F4F6"/>
  <ellipse cx="32" cy="38" rx="2.5" ry="1.5" fill="#1F2937"/>
  <path d="M29 40.5 Q32 43 35 40.5" stroke="#6B7280" strokeWidth="1" strokeLinecap="round" fill="none"/>
  <line x1="26" y1="39" x2="18" y2="38" stroke="#D1D5DB" strokeWidth="0.6"/>
  <line x1="26" y1="39.5" x2="18" y2="41" stroke="#D1D5DB" strokeWidth="0.6"/>
  <line x1="38" y1="39" x2="46" y2="38" stroke="#D1D5DB" strokeWidth="0.6"/>
  <line x1="38" y1="39.5" x2="46" y2="41" stroke="#D1D5DB" strokeWidth="0.6"/>
</svg>
